<?xml version="1.0" encoding="UTF-8"?>
<svg width="64px" height="64px" viewBox="0 0 64 64" version="1.1" xmlns="http://www.w3.org/2000/svg" xmlns:xlink="http://www.w3.org/1999/xlink">
    <title>volume_set</title>
    <g id="volume_set" stroke="none" stroke-width="1" fill="none" fill-rule="evenodd">
        <path d="M48.9705627,15.0294373 C58.3431458,24.4020203 58.3431458,39.5979797 48.9705627,48.9705627 C48.1895142,49.7516113 46.9231842,49.7516113 46.1421356,48.9705627 C45.361087,48.1895142 45.361087,46.9231842 46.1421356,46.1421356 C53.9526215,38.3316498 53.9526215,25.6683502 46.1421356,17.8578644 C45.361087,17.0768158 45.361087,15.8104858 46.1421356,15.0294373 C46.9231842,14.2483887 48.1895142,14.2483887 48.9705627,15.0294373 Z M43.3137085,20.6862915 C49.5620972,26.9346802 49.5620972,37.0653198 43.3137085,43.3137085 C42.5326599,44.0947571 41.26633,44.0947571 40.4852814,43.3137085 C39.7042328,42.5326599 39.7042328,41.26633 40.4852814,40.4852814 C45.1715729,35.7989899 45.1715729,28.2010101 40.4852814,23.5147186 C39.7042328,22.73367 39.7042328,21.4673401 40.4852814,20.6862915 C41.26633,19.9052429 42.5326599,19.9052429 43.3137085,20.6862915 Z M11,41 C9.34314575,41 8,39.6568542 8,38 L8,26 C8,24.3431458 9.34314575,23 11,23 L16.4792249,23 C17.4588682,23 18.4044504,22.6404955 19.1366513,21.989663 L28.6984173,13.4904813 C29.0609035,13.1739747 29.5225775,13 30,13 C31.1045695,13 32,13.9121577 32,15.0373613 L32,48.9626018 C32,49.4489429 31.8292157,49.9192412 31.5185132,50.2884989 C30.7996689,51.1428172 29.5370689,51.2417546 28.6984173,50.5094818 L19.1366499,42.0103319 C18.4044498,41.3595025 17.4588699,41 16.4792293,41 L11,41 Z" id="Shape" fill="#000000" fill-rule="nonzero"></path>
    </g>
</svg>