<?xml version="1.0" encoding="utf-8"?>
<!-- Svg Vector Icons : http://www.onlinewebfonts.com/icon -->
<!DOCTYPE svg PUBLIC "-//W3C//DTD SVG 1.1//EN" "http://www.w3.org/Graphics/SVG/1.1/DTD/svg11.dtd">
<svg version="1.1" xmlns="http://www.w3.org/2000/svg" xmlns:xlink="http://www.w3.org/1999/xlink" x="0px" y="0px" viewBox="0 0 256 256" enable-background="new 0 0 256 256" xml:space="preserve">
<metadata> Svg Vector Icons : http://www.onlinewebfonts.com/icon </metadata>
<g><g><path fill="#000000" d="M63.7,53.2v171.2h106.9V246H63.7c-6,0-11.1-2.2-15.3-6.5c-4.2-4.4-6.3-9.4-6.3-15V53.2L63.7,53.2L63.7,53.2z M122.5,133.5c0-7.4,2.7-13.7,8-19.1c5.3-5.3,11.7-8,19.1-8c7.4,0,13.6,2.7,18.8,8c5.2,5.3,7.8,11.7,7.8,19.1s-2.6,13.6-7.8,18.8c-5.2,5.2-11.5,7.8-18.8,7.8c-7.4,0-13.7-2.6-19.1-7.8C125.2,147.2,122.5,140.9,122.5,133.5z M149.6,176.2c11.7,0,21.8-4.2,30.1-12.5c8.4-8.4,12.5-18.4,12.5-30.1c0-11.7-4.2-21.8-12.5-30.4c-8.4-8.5-18.4-12.8-30.1-12.8c-11.7,0-21.8,4.3-30.4,12.8c-8.5,8.5-12.8,18.7-12.8,30.4c0,11.7,4.3,21.8,12.8,30.1C127.8,172,137.9,176.2,149.6,176.2L149.6,176.2z M149.6,31.6c-5.7,0-10.7,2.1-15.1,6.3c-4.4,4.2-6.5,9.3-6.5,15.3c0,6,2.1,11.1,6.3,15.1c4.2,4,9.3,6,15.3,6c5.7,0,10.6-2,14.8-6c4.2-4,6.3-9,6.3-15.1c0-6-2.1-11.1-6.3-15.3C160.3,33.7,155.3,31.6,149.6,31.6L149.6,31.6z M194.3,10c5.3,0,10,1.9,13.8,5.8c3.9,3.9,5.8,8.5,5.8,13.8v154.1c0,5.3-1.9,9.9-5.8,13.6c-3.9,3.7-8.5,5.5-13.8,5.5h-89.9c-5.3,0-9.9-1.9-13.6-5.5c-3.7-3.7-5.5-8.2-5.5-13.6V29.6c0-5.3,1.9-10,5.5-13.8c3.7-3.8,8.2-5.8,13.6-5.8H194.3L194.3,10z"/></g></g>
</svg>