<?xml version="1.0" encoding="UTF-8" standalone="no"?>
<!-- Created with Inkscape (http://www.inkscape.org/) -->

<svg
   width="255.99998"
   height="255.99998"
   viewBox="0 0 67.733328 67.733329"
   version="1.1"
   id="svg1"
   inkscape:export-filename="icon.svg"
   inkscape:export-xdpi="96"
   inkscape:export-ydpi="96"
   xmlns:inkscape="http://www.inkscape.org/namespaces/inkscape"
   xmlns:sodipodi="http://sodipodi.sourceforge.net/DTD/sodipodi-0.dtd"
   xmlns="http://www.w3.org/2000/svg"
   xmlns:svg="http://www.w3.org/2000/svg">
  <sodipodi:namedview
     id="namedview1"
     pagecolor="#ffffff"
     bordercolor="#000000"
     borderopacity="0.25"
     inkscape:showpageshadow="2"
     inkscape:pageopacity="0.0"
     inkscape:pagecheckerboard="0"
     inkscape:deskcolor="#d1d1d1"
     inkscape:document-units="mm"
     inkscape:export-bgcolor="#ffffff00" />
  <defs
     id="defs1" />
  <g
     inkscape:label="Livello 1"
     inkscape:groupmode="layer"
     id="layer1">
    <g
       id="g2"
       style="fill:#232f3e;fill-opacity:1"
       transform="scale(0.13229167)">&#10;	<path
   d="M 256,0 C 114.6,0 0,114.6 0,256 0,397.4 114.6,512 256,512 397.4,512 512,397.4 512,256 512,114.6 397.4,0 256,0 Z m 9.8,171 c -3.9,-5.7 -11.3,-8.5 -18.1,-8.5 h -2.3 c -11.3,1.1 -21.5,7.3 -24.3,19.8 -0.6,2.8 -2.3,5.6 -5.6,6.2 l -31.6,-4 c -2.3,-0.6 -5.7,-2.2 -4.5,-6.8 6.8,-35.6 37.3,-48 66.1,-49.7 h 6.8 c 15.8,0 36.2,4.5 49.2,16.4 15.8,14.7 14.1,34.4 14.1,55.9 v 50.8 c 0,15.3 6.2,22 12.4,30 1.7,2.8 2.3,6.2 -0.6,8.5 -6.2,5.6 -18.1,15.8 -24.9,21.5 -2.2,1.7 -5.1,1.7 -7.9,0.6 -10.7,-9 -12.4,-13 -18.6,-21.5 -10.7,11.3 -19.8,17.5 -30.5,20.9 -6.8,1.7 -14.1,2.8 -23.1,2.8 -27.1,0 -48.6,-16.9 -48.6,-50.3 0,-26.5 14.1,-44.6 35,-53.1 10.7,-5.1 23.7,-7.3 36.7,-9.1 8.5,-1.1 17,-1.7 24.3,-2.2 v -4.5 c -0.1,-7.9 0.5,-17 -4,-23.7 z m 85.5,177.9 c -3.3,2.6 -6.8,5 -10.3,7.1 l -0.2,0.1 c -26.7,16.8 -61.1,27 -91.5,27.7 -0.9,0 -1.9,0 -2.8,0 -47.8,0 -83.4,-26.2 -115.8,-54.4 -1.6,-1.3 -2.7,-3.2 -2.7,-5.3 0,-1.6 0.7,-3.2 1.8,-4.3 1.2,-1.1 2.7,-1.7 4.3,-1.7 1.2,0 2.4,0.3 3.6,1 34.6,19.2 68.8,38.7 110.8,38.6 1,0 1.9,0 2.9,0 26.7,-0.6 55.5,-7.1 83,-18.2 v 0 l 2.5,-1 1.9,-0.8 c 1.3,-0.6 2.7,-1.2 4.1,-1.7 1.2,-0.6 2.5,-0.9 3.8,-0.9 4,0 7.7,3 7.8,7.4 0.3,2.5 -1.1,4.9 -3.2,6.4 z m 15.7,11.6 c -1.3,1 -2.9,1.8 -4.7,1.8 h -0.1 c -1.2,0 -2.6,-0.4 -3.8,-1.5 -1.1,-1.1 -1.7,-2.6 -1.6,-4 0,-0.9 0.2,-1.7 0.5,-2.5 1.2,-3.3 3.1,-8.2 4.6,-13.1 1.6,-4.9 2.7,-9.9 2.7,-12.6 0,-0.7 -0.1,-1.2 -0.1,-1.4 0,0 -0.1,-0.1 -0.2,-0.1 -0.3,-0.1 -0.8,-0.3 -1.5,-0.5 -1.4,-0.3 -3.5,-0.5 -5.8,-0.5 -3.2,0 -7,0.3 -10.5,0.7 -4.1,0.6 -7.6,0.9 -10,1.4 h -0.2 -0.2 c -0.2,0 -0.5,0.1 -0.8,0.1 -1.2,0 -2.6,-0.3 -3.8,-1.3 -1.2,-1 -1.9,-2.6 -1.9,-4 0.1,-2.6 1.5,-4.3 3.2,-5.6 2.8,-2 5.7,-3.7 9,-5 v -0.1 l 2.8,-0.9 h 0.1 l 4.9,-1.6 v 0.3 c 4.9,-1.1 9.8,-1.5 14.2,-1.5 6.1,0 11.2,0.7 14.7,2.1 1.2,0.5 2.3,1 3.4,2.2 l 0.1,0.2 0.1,0.2 c 1.1,1.7 1.7,3.7 1.8,6.4 v 0 1.6 c 0,10.1 -4.4,28 -16.9,39.2 z"
   id="path1"
   style="display:inline;fill:#232f3e;fill-opacity:1" />
&#10;	<path
   d="m 269.7,225.2 c -8.5,0 -17,0.6 -24.3,2.3 -13.6,4 -24.3,12.4 -24.3,30.5 0,14.1 7.3,23.7 19.8,23.7 1.7,0 3.4,-0.6 4.5,-0.6 7.3,-1.7 14.1,-6.8 18.1,-14.7 6.8,-11.3 6.2,-21.5 6.2,-34.5 z"
   id="path2"
   style="display:inline;fill:#232f3e;fill-opacity:1" />
&#10;</g>
  </g>
</svg>
