<?xml version="1.0" encoding="UTF-8" standalone="no"?>
<!-- Created with Inkscape (http://www.inkscape.org/) -->

<svg
   width="960"
   height="960"
   viewBox="0 0 254 254"
   version="1.1"
   id="svg1"
   inkscape:export-filename="icon.svg"
   inkscape:export-xdpi="96"
   inkscape:export-ydpi="96"
   sodipodi:docname="icon.svg"
   inkscape:version="1.3 (0e150ed6c4, 2023-07-21)"
   xmlns:inkscape="http://www.inkscape.org/namespaces/inkscape"
   xmlns:sodipodi="http://sodipodi.sourceforge.net/DTD/sodipodi-0.dtd"
   xmlns="http://www.w3.org/2000/svg"
   xmlns:svg="http://www.w3.org/2000/svg">
  <sodipodi:namedview
     id="namedview1"
     pagecolor="#ffffff"
     bordercolor="#000000"
     borderopacity="0.25"
     inkscape:showpageshadow="2"
     inkscape:pageopacity="0.0"
     inkscape:pagecheckerboard="0"
     inkscape:deskcolor="#d1d1d1"
     inkscape:document-units="mm"
     inkscape:export-bgcolor="#ffffff00"
     inkscape:zoom="0.31723122"
     inkscape:cx="129.24327"
     inkscape:cy="129.24327"
     inkscape:window-width="1368"
     inkscape:window-height="850"
     inkscape:window-x="-6"
     inkscape:window-y="-6"
     inkscape:window-maximized="1"
     inkscape:current-layer="layer1" />
  <defs
     id="defs1" />
  <g
     inkscape:label="Livello 1"
     inkscape:groupmode="layer"
     id="layer1">
    <g
       id="g2"
       style="fill:#232f3e;fill-opacity:1"
       transform="scale(0.49609375)">
      <path
         d="M 256,0 C 114.6,0 0,114.6 0,256 0,397.4 114.6,512 256,512 397.4,512 512,397.4 512,256 512,114.6 397.4,0 256,0 Z m 9.8,171 c -3.9,-5.7 -11.3,-8.5 -18.1,-8.5 h -2.3 c -11.3,1.1 -21.5,7.3 -24.3,19.8 -0.6,2.8 -2.3,5.6 -5.6,6.2 l -31.6,-4 c -2.3,-0.6 -5.7,-2.2 -4.5,-6.8 6.8,-35.6 37.3,-48 66.1,-49.7 h 6.8 c 15.8,0 36.2,4.5 49.2,16.4 15.8,14.7 14.1,34.4 14.1,55.9 v 50.8 c 0,15.3 6.2,22 12.4,30 1.7,2.8 2.3,6.2 -0.6,8.5 -6.2,5.6 -18.1,15.8 -24.9,21.5 -2.2,1.7 -5.1,1.7 -7.9,0.6 -10.7,-9 -12.4,-13 -18.6,-21.5 -10.7,11.3 -19.8,17.5 -30.5,20.9 -6.8,1.7 -14.1,2.8 -23.1,2.8 -27.1,0 -48.6,-16.9 -48.6,-50.3 0,-26.5 14.1,-44.6 35,-53.1 10.7,-5.1 23.7,-7.3 36.7,-9.1 8.5,-1.1 17,-1.7 24.3,-2.2 v -4.5 c -0.1,-7.9 0.5,-17 -4,-23.7 z m 85.5,177.9 c -3.3,2.6 -6.8,5 -10.3,7.1 l -0.2,0.1 c -26.7,16.8 -61.1,27 -91.5,27.7 -0.9,0 -1.9,0 -2.8,0 -47.8,0 -83.4,-26.2 -115.8,-54.4 -1.6,-1.3 -2.7,-3.2 -2.7,-5.3 0,-1.6 0.7,-3.2 1.8,-4.3 1.2,-1.1 2.7,-1.7 4.3,-1.7 1.2,0 2.4,0.3 3.6,1 34.6,19.2 68.8,38.7 110.8,38.6 1,0 1.9,0 2.9,0 26.7,-0.6 55.5,-7.1 83,-18.2 v 0 l 2.5,-1 1.9,-0.8 c 1.3,-0.6 2.7,-1.2 4.1,-1.7 1.2,-0.6 2.5,-0.9 3.8,-0.9 4,0 7.7,3 7.8,7.4 0.3,2.5 -1.1,4.9 -3.2,6.4 z m 15.7,11.6 c -1.3,1 -2.9,1.8 -4.7,1.8 h -0.1 c -1.2,0 -2.6,-0.4 -3.8,-1.5 -1.1,-1.1 -1.7,-2.6 -1.6,-4 0,-0.9 0.2,-1.7 0.5,-2.5 1.2,-3.3 3.1,-8.2 4.6,-13.1 1.6,-4.9 2.7,-9.9 2.7,-12.6 0,-0.7 -0.1,-1.2 -0.1,-1.4 0,0 -0.1,-0.1 -0.2,-0.1 -0.3,-0.1 -0.8,-0.3 -1.5,-0.5 -1.4,-0.3 -3.5,-0.5 -5.8,-0.5 -3.2,0 -7,0.3 -10.5,0.7 -4.1,0.6 -7.6,0.9 -10,1.4 h -0.2 -0.2 c -0.2,0 -0.5,0.1 -0.8,0.1 -1.2,0 -2.6,-0.3 -3.8,-1.3 -1.2,-1 -1.9,-2.6 -1.9,-4 0.1,-2.6 1.5,-4.3 3.2,-5.6 2.8,-2 5.7,-3.7 9,-5 v -0.1 l 2.8,-0.9 h 0.1 l 4.9,-1.6 v 0.3 c 4.9,-1.1 9.8,-1.5 14.2,-1.5 6.1,0 11.2,0.7 14.7,2.1 1.2,0.5 2.3,1 3.4,2.2 l 0.1,0.2 0.1,0.2 c 1.1,1.7 1.7,3.7 1.8,6.4 v 0 1.6 c 0,10.1 -4.4,28 -16.9,39.2 z"
         id="path1"
         style="display:inline;fill:#232f3e;fill-opacity:1" />
      <path
         d="m 269.7,225.2 c -8.5,0 -17,0.6 -24.3,2.3 -13.6,4 -24.3,12.4 -24.3,30.5 0,14.1 7.3,23.7 19.8,23.7 1.7,0 3.4,-0.6 4.5,-0.6 7.3,-1.7 14.1,-6.8 18.1,-14.7 6.8,-11.3 6.2,-21.5 6.2,-34.5 z"
         id="path2"
         style="display:inline;fill:#232f3e;fill-opacity:1" />
    </g>
    <path
       style="fill:#000000;stroke-width:3.15227"
       d="M 430.28552,956.32146 C 351.00934,946.24799 277.57684,919.15841 212.57666,876.0077 172.67249,849.51712 110.35059,787.19523 83.860004,747.29105 46.648785,691.23784 21.321973,628.76309 9.0204177,562.68107 0.35289087,516.12045 1.1358561,432.57499 10.660013,387.72981 33.990696,277.87558 91.050302,182.00046 173.71175,113.76008 244.49568,55.325079 327.60537,18.205386 414.20224,6.3486271 447.34898,1.8102065 516.58333,1.844594 546.97792,6.4145739 647.00452,21.454086 736.47081,65.153424 808.1274,133.97168 c 45.20848,43.41774 72.93286,80.55984 99.05646,132.70498 35.19193,70.24639 50.32213,135.97211 49.96863,217.06442 -0.56063,128.61581 -49.80559,245.06062 -142.03239,335.85039 -67.19629,66.14926 -148.45377,109.63325 -241.40607,129.18568 -30.84129,6.48744 -116.34965,10.98517 -143.42851,7.54431 z m 67.77391,-237.945 c 15.60376,-1.91217 40.42793,-6.93201 55.16481,-11.15517 33.28276,-9.53784 85.69813,-34.76565 102.40846,-49.28973 11.53304,-10.02414 12.30746,-11.67114 9.39882,-19.98848 -4.51802,-12.91941 -14.01217,-12.85967 -48.09384,0.30271 -46.28996,17.87719 -88.32208,27.04302 -133.43262,29.09727 -64.10907,2.91944 -103.33188,-7.48773 -182.17555,-48.3374 -45.35644,-23.49964 -55.14099,-26.14969 -61.14829,-16.56154 -5.29562,8.45222 -0.72596,14.06567 33.69975,41.39728 40.13163,31.86171 72.28774,50.64561 107.44518,62.76387 42.44362,14.62968 70.40197,17.44898 116.73328,11.77119 z m 195.32949,-44.96764 c 17.97313,-17.97314 31.2101,-60.05043 25.74327,-81.83205 -2.80682,-11.1832 -19.39131,-16.01589 -47.01486,-13.70003 -23.17353,1.94277 -48.18318,12.0455 -54.07453,21.84356 -4.97003,8.26574 1.70185,16.65091 12.8116,16.10163 4.98157,-0.24632 17.86981,-0.89074 28.64056,-1.43202 10.77073,-0.54131 20.52941,-0.038 21.68595,1.11859 1.15651,1.15654 -1.7079,14.32501 -6.36542,29.26329 -6.62879,21.26087 -7.66069,28.13352 -4.75054,31.64005 5.5173,6.64792 14.87827,5.44268 23.32397,-3.00302 z M 471.2651,580.99853 c 7.80188,-3.48711 21.35161,-12.03772 30.11049,-19.00135 l 15.92527,-12.66117 16.60659,18.49354 c 22.24122,24.76847 26.40941,24.51275 58.72023,-3.60258 13.87001,-12.06902 25.67279,-24.07105 26.22838,-26.6712 0.55558,-2.60013 -4.40925,-13.5018 -11.03297,-24.22593 l -12.04314,-19.49846 -1.7242,-88.51386 c -2.01805,-103.59759 -3.1674,-109.33406 -26.63716,-132.94902 -21.97864,-22.11461 -43.43267,-30.03363 -86.75555,-32.02286 -51.20237,-2.35103 -85.59328,7.584 -113.56714,32.8079 -21.30115,19.20711 -39.41617,65.10488 -28.38623,71.92177 1.64583,1.01714 17.4699,3.7176 35.1646,6.00102 30.20447,3.89769 32.52785,3.79593 37.98718,-1.6634 3.19824,-3.19823 5.81497,-7.8339 5.81497,-10.30151 0,-7.20663 16.15437,-24.36982 27.33398,-29.04097 13.58091,-5.67446 24.50172,-5.42742 37.73818,0.8537 14.29535,6.78358 20.03926,18.74284 20.03926,41.72321 v 18.81927 l -21.27785,2.1036 c -38.05827,3.76256 -77.81283,13.16923 -97.36217,23.03768 -44.3585,22.39212 -66.8149,67.98048 -57.84718,117.43457 6.57417,36.25431 24.21237,58.94883 54.12412,69.63974 22.50031,8.04195 69.98173,6.63922 90.84034,-2.68369 z"
       id="path3"
       transform="scale(0.26458333)" />
  </g>
</svg>
